<?xml version="1.0" encoding="UTF-8" standalone="no"?>
<!-- Created with Inkscape (http://www.inkscape.org/) -->

<svg
   xmlns:dc="http://purl.org/dc/elements/1.1/"
   xmlns:cc="http://creativecommons.org/ns#"
   xmlns:rdf="http://www.w3.org/1999/02/22-rdf-syntax-ns#"
   xmlns:svg="http://www.w3.org/2000/svg"
   xmlns="http://www.w3.org/2000/svg"
   xmlns:xlink="http://www.w3.org/1999/xlink"
   xmlns:sodipodi="http://sodipodi.sourceforge.net/DTD/sodipodi-0.dtd"
   xmlns:inkscape="http://www.inkscape.org/namespaces/inkscape"
   width="1292.51"
   height="1221.2845"
   viewBox="0 0 341.97661 323.13153"
   version="1.1"
   id="svg8"
   inkscape:version="0.92.2 5c3e80d, 2017-08-06"
   sodipodi:docname="logo.svg"
   style="enable-background:new"
   inkscape:export-filename="/home/iamthememory/src/hapcat/logo-base-fill.png"
   inkscape:export-xdpi="300"
   inkscape:export-ydpi="300">
  <defs
     id="defs2">
    <linearGradient
       inkscape:collect="always"
       id="saxglow">
      <stop
         style="stop-color:#d0b554;stop-opacity:1"
         offset="0"
         id="stop2287" />
      <stop
         style="stop-color:#000000;stop-opacity:1"
         offset="1"
         id="stop2289" />
    </linearGradient>
    <linearGradient
       id="catglow"
       inkscape:collect="always">
      <stop
         id="stop2181"
         offset="0"
         style="stop-color:#7d3988;stop-opacity:1" />
      <stop
         id="stop2183"
         offset="1"
         style="stop-color:#7d3988;stop-opacity:0" />
    </linearGradient>
    <linearGradient
       inkscape:collect="always"
       id="backglow">
      <stop
         style="stop-color:#b6ab81;stop-opacity:1"
         offset="0"
         id="stop972" />
      <stop
         style="stop-color:#d0b554;stop-opacity:0;"
         offset="1"
         id="stop974" />
    </linearGradient>
    <radialGradient
       inkscape:collect="always"
       xlink:href="#backglow"
       id="radialGradient978"
       cx="217.10397"
       cy="238.50609"
       fx="217.10397"
       fy="238.50609"
       r="161.56577"
       gradientUnits="userSpaceOnUse" />
    <radialGradient
       inkscape:collect="always"
       xlink:href="#catglow"
       id="radialGradient2179"
       cx="217.10397"
       cy="238.50609"
       fx="217.10397"
       fy="238.50609"
       r="161.56577"
       gradientUnits="userSpaceOnUse" />
    <clipPath
       clipPathUnits="userSpaceOnUse"
       id="clipPath2251">
      <path
         style="display:inline;fill:#000000;fill-opacity:1;fill-rule:evenodd;stroke:none;stroke-width:0.79400003;stroke-linecap:butt;stroke-linejoin:miter;stroke-miterlimit:4;stroke-dasharray:none;stroke-opacity:1;enable-background:new"
         d="m 245.46718,106.78004 c -0.21391,-0.009 -0.42848,0.0111 -0.64337,0.0641 -1.35415,0.33365 -0.67541,3.90964 -2.53731,8.32146 -3.76355,8.91785 -14.04826,16.19262 -17.3607,28.55484 -2.5411,9.48351 0.27208,25.72323 -2.16472,33.38195 -4.02119,12.63843 -16.98309,28.74757 -22.15679,38.78057 -5.61359,10.88606 -47.1347,40.13137 -54.83696,48.46733 -3.50018,3.78814 -5.55996,5.73502 -5.71283,5.7955 -10.41402,4.1242 -52.002175,0.57341 -62.140392,3.60807 -11.37598,3.40519 -29.026527,11.00998 -37.952206,21.91597 -3.209716,3.92184 -4.619196,10.27851 -1.603521,12.06283 5.323864,3.15 15.535723,-9.98791 23.920506,-13.93351 5.482127,-2.57972 10.61325,-4.43336 17.294035,-5.72215 11.777106,-2.27189 51.917148,-3.62815 58.877538,2.91561 4.50111,4.23169 7.81908,17.09711 5.34541,23.51947 -1.90925,4.957 -14.38904,8.33202 -19.605,13.64724 -4.33991,4.42245 -6.02217,31.35063 -2.07585,37.44732 2.84764,4.39928 13.52809,8.13774 17.6904,7.02956 2.79788,-0.74488 3.66896,-4.15539 3.58996,-6.23994 -0.13696,-3.61227 -7.47678,-6.01906 -6.91586,-11.09183 0.90807,-8.21238 5.75761,-12.56856 9.98957,-17.20205 13.46874,-14.7466 34.18684,-16.74214 41.56026,-9.29089 2.32662,2.35116 -6.29836,14.4449 -5.6131,19.74453 1.31711,10.18617 35.70847,27.3222 42.74675,20.83025 1.23677,-1.14078 1.01954,-8.34861 -1.85415,-11.30888 -3.20676,-3.30337 -14.91553,-1.46026 -15.14792,-5.55884 -0.67374,-11.88236 2.69973,-44.12745 2.05156,-65.00069 16.92717,-16.8887 35.17509,-38.5854 42.62944,-39.65597 3.71928,-0.53415 11.82602,2.92998 15.83572,7.71736 3.4162,4.0788 1.60399,12.84011 6.32209,14.86214 0.82854,-0.14261 2.34521,0.73779 2.59313,0.27027 2.39525,-4.51715 2.20427,-11.76065 5.94021,-17.30592 0.24617,-0.36539 0.46339,-0.73747 0.69194,-1.09399 -4.36779,-5.80229 -11.24659,-13.10311 -18.55391,-20.78685 19.35996,-7.85672 39.93156,-4.2127 44.63294,-3.06648 3.50271,0.85399 5.80885,3.00216 6.94997,1.1958 3.44926,-5.46002 -2.47182,-15.36485 -7.75095,-19.77812 -5.89661,-4.92948 -34.0774,1.04822 -40.89206,-6.14692 -4.05396,-4.28026 -3.40016,-17.69338 -0.90229,-21.34805 2.14678,-3.14096 15.85439,-5.21649 18.16426,-11.23549 5.02626,-13.09716 -12.72609,-58.70438 -16.03621,-58.93283 -3.54762,-0.24483 -0.86836,6.59195 -8.96071,6.92567 -6.84279,0.28217 -11.05929,-12.16855 -15.40888,-12.35842 z"
         id="path2253"
         inkscape:connector-curvature="0" />
    </clipPath>
    <linearGradient
       inkscape:collect="always"
       xlink:href="#saxglow"
       id="linearGradient2295"
       gradientUnits="userSpaceOnUse"
       x1="278.59924"
       y1="335.08224"
       x2="340.44266"
       y2="215.69145"
       spreadMethod="reflect" />
  </defs>
  <sodipodi:namedview
     id="base"
     pagecolor="#ffffff"
     bordercolor="#666666"
     borderopacity="1.0"
     inkscape:pageopacity="0.0"
     inkscape:pageshadow="2"
     inkscape:zoom="0.48171649"
     inkscape:cx="623.11143"
     inkscape:cy="432.69775"
     inkscape:document-units="mm"
     inkscape:current-layer="svg8"
     showgrid="false"
     inkscape:pagecheckerboard="true"
     inkscape:window-width="1914"
     inkscape:window-height="1011"
     inkscape:window-x="0"
     inkscape:window-y="42"
     inkscape:window-maximized="0"
     fit-margin-top="0"
     fit-margin-left="0"
     fit-margin-right="0"
     fit-margin-bottom="0"
     units="px"
     showguides="true"
     inkscape:guide-bbox="true" />
  <metadata
     id="metadata5">
    <rdf:RDF>
      <cc:Work
         rdf:about="">
        <dc:format>image/svg+xml</dc:format>
        <dc:type
           rdf:resource="http://purl.org/dc/dcmitype/StillImage" />
        <dc:title></dc:title>
        <cc:license
           rdf:resource="http://creativecommons.org/licenses/by-nc-sa/4.0/" />
      </cc:Work>
      <cc:License
         rdf:about="http://creativecommons.org/licenses/by-nc-sa/4.0/">
        <cc:permits
           rdf:resource="http://creativecommons.org/ns#Reproduction" />
        <cc:permits
           rdf:resource="http://creativecommons.org/ns#Distribution" />
        <cc:requires
           rdf:resource="http://creativecommons.org/ns#Notice" />
        <cc:requires
           rdf:resource="http://creativecommons.org/ns#Attribution" />
        <cc:prohibits
           rdf:resource="http://creativecommons.org/ns#CommercialUse" />
        <cc:permits
           rdf:resource="http://creativecommons.org/ns#DerivativeWorks" />
        <cc:requires
           rdf:resource="http://creativecommons.org/ns#ShareAlike" />
      </cc:License>
    </rdf:RDF>
  </metadata>
  <g
     inkscape:groupmode="layer"
     id="layer6"
     inkscape:label="Back Glow"
     style="display:inline"
     transform="translate(-36.693118,-76.940323)"
     sodipodi:insensitive="true">
    <circle
       style="opacity:1;fill:url(#radialGradient978);fill-opacity:1;stroke:none;stroke-width:0.79399997;stroke-miterlimit:4;stroke-dasharray:none;stroke-opacity:1"
       id="path934"
       cx="217.10397"
       cy="238.50609"
       r="161.56577" />
  </g>
  <g
     inkscape:groupmode="layer"
     id="layer5"
     inkscape:label="Underpaw"
     style="display:inline"
     transform="translate(-36.69312,-105.25074)"
     sodipodi:insensitive="true">
    <g
       style="display:inline"
       inkscape:label="Underpaw color"
       id="g909"
       inkscape:groupmode="layer"
       transform="translate(125.4881,119.32187)">
      <path
         inkscape:export-filename="/tmp/smaller.png"
         inkscape:export-ydpi="150"
         inkscape:export-xdpi="150"
         style="fill:#000000;fill-opacity:1;fill-rule:evenodd;stroke:none;stroke-width:0.79374999;stroke-linecap:butt;stroke-linejoin:miter;stroke-miterlimit:4;stroke-dasharray:none;stroke-opacity:1"
         d="m 140.18287,140.51369 c 12.81321,13.47326 24.32274,25.77586 23.25244,30.86963 -1.06351,5.06148 -8.65741,9.8209 -13.56393,8.18513 -5.17177,-1.72421 -3.1813,-10.82114 -6.68173,-15.0005 -4.00969,-4.78738 -12.11644,-8.25156 -15.83572,-7.71741 z"
         id="path907"
         inkscape:connector-curvature="0"
         sodipodi:nodetypes="cssscc" />
    </g>
    <g
       inkscape:groupmode="layer"
       id="layer3"
       inkscape:label="Underpaw outline"
       style="display:none"
       transform="translate(125.4881,119.32187)"
       sodipodi:insensitive="true">
      <path
         sodipodi:nodetypes="cssscc"
         inkscape:connector-curvature="0"
         id="path97"
         d="m 140.18287,140.51369 c 12.81321,13.47326 24.32274,25.77586 23.25244,30.86963 -1.06351,5.06148 -8.65741,9.8209 -13.56393,8.18513 -5.17177,-1.72421 -3.1813,-10.82114 -6.68173,-15.0005 -4.00969,-4.78738 -12.11644,-8.25156 -15.83572,-7.71741 z"
         style="fill:none;fill-rule:evenodd;stroke:#000000;stroke-width:0.79374999;stroke-linecap:butt;stroke-linejoin:miter;stroke-miterlimit:4;stroke-dasharray:none;stroke-opacity:1"
         inkscape:export-xdpi="150"
         inkscape:export-ydpi="150"
         inkscape:export-filename="/tmp/smaller.png" />
    </g>
  </g>
  <g
     inkscape:groupmode="layer"
     id="layer9"
     inkscape:label="Body"
     style="display:inline"
     transform="translate(-36.69312,-105.25074)"
     sodipodi:insensitive="true">
    <g
       transform="translate(125.4881,119.32187)"
       style="display:inline"
       inkscape:label="Body color"
       id="g100"
       inkscape:groupmode="layer"
       sodipodi:insensitive="true">
      <path
         inkscape:export-filename="/tmp/smaller.png"
         inkscape:export-ydpi="150"
         inkscape:export-xdpi="150"
         sodipodi:nodetypes="ssssssssscsssscsssssssssssssssssssssssss"
         inkscape:connector-curvature="0"
         id="path98"
         d="m 119.33584,15.832457 c 4.58418,-1.1295 8.87306,12.590456 16.05238,12.294397 8.09235,-0.33371 5.41266,-7.170218 8.96025,-6.925384 3.31014,0.228447 21.06243,45.83577 16.03617,58.932931 -2.30989,6.019001 -16.01707,8.094146 -18.16385,11.235105 -2.49788,3.654672 -3.1519,17.067894 0.90204,21.348154 6.81468,7.19514 34.99563,1.21773 40.89224,6.1472 5.27914,4.41327 11.20008,14.31792 7.75082,19.77794 -1.14113,1.80636 -3.44725,-0.34179 -6.94998,-1.19578 -4.70138,-1.14623 -25.2731,-4.79005 -44.63304,3.06667 12.81321,13.47326 24.32274,25.77586 23.25244,30.86963 -1.06351,5.06148 -8.65741,9.8209 -13.56393,8.18513 -5.17177,-1.72421 -3.1813,-10.82114 -6.68173,-15.0005 -4.00969,-4.78738 -12.11644,-8.25156 -15.83572,-7.71741 -7.45435,1.07057 -25.70232,22.76738 -42.62949,39.65612 0.648167,20.8732 -2.725507,53.11809 -2.05177,65.00045 0.232392,4.09858 11.941221,2.25532 15.147975,5.5587 2.873695,2.96028 3.090955,10.16807 1.854183,11.30884 -7.038273,6.49196 -41.42931,-10.64411 -42.746421,-20.83032 -0.685254,-5.29959 7.939278,-17.39336 5.612663,-19.74453 -7.373416,-7.45125 -28.091248,-5.45561 -41.559985,9.29101 -4.231968,4.63349 -9.081559,8.98971 -9.989626,17.20208 -0.560914,5.07279 6.77864,7.47939 6.915599,11.09167 0.07904,2.08455 -0.791862,5.49514 -3.589743,6.24004 -4.162305,1.10817 -14.84297718,-2.63009 -17.6906094,-7.02939 -3.9463276,-6.09668 -2.2638202,-33.0249 2.0760875,-37.44738 5.2159594,-5.3152 17.6959149,-8.68996 19.6051689,-13.64695 2.473668,-6.42237 -0.844279,-19.28803 -5.34539,-23.51972 -6.9603941,-6.54376 -47.10047,-5.18754 -58.877576,-2.91565 -6.680785,1.28878 -11.812111,3.14227 -17.294239,5.72198 -8.384782,3.9456 -18.596758,17.08378 -23.920622,13.93377 -3.015676,-1.78431 -1.6061,-8.14103 1.603618,-12.06288 8.925678,-10.906 26.576292,-18.51093 37.952272,-21.91611 10.138217,-3.03468 51.7261443,0.51604 62.140164,-3.60813 0.152872,-0.0605 2.212892,-2.00707 5.713074,-5.79522 7.702258,-8.33596 49.223249,-37.58112 54.836838,-48.46718 5.173696,-10.033 18.135447,-26.142382 22.156643,-38.780808 2.436795,-7.658728 -0.376218,-23.898452 2.164881,-33.381964 3.312445,-12.362219 13.596995,-19.636949 17.360545,-28.554797 1.8619,-4.411825 1.18352,-7.988064 2.53767,-8.321714 z"
         style="fill:#000000;fill-opacity:1;fill-rule:evenodd;stroke:none;stroke-width:0.79400003;stroke-linecap:butt;stroke-linejoin:miter;stroke-miterlimit:4;stroke-dasharray:none;stroke-opacity:1" />
    </g>
    <g
       inkscape:groupmode="layer"
       id="layer2"
       inkscape:label="Body outline"
       style="display:none"
       transform="translate(125.4881,119.32187)"
       sodipodi:insensitive="true">
      <path
         style="fill:none;fill-rule:evenodd;stroke:#000000;stroke-width:0.79374999;stroke-linecap:butt;stroke-linejoin:miter;stroke-miterlimit:4;stroke-dasharray:none;stroke-opacity:1"
         d="m 119.33584,15.832457 c 4.58418,-1.1295 8.87306,12.590456 16.05238,12.294397 8.09235,-0.33371 5.41266,-7.170218 8.96025,-6.925384 3.31014,0.228447 21.06243,45.83577 16.03617,58.932931 -2.30989,6.019001 -16.01707,8.094146 -18.16385,11.235105 -2.49788,3.654672 -3.1519,17.067894 0.90204,21.348154 6.81468,7.19514 34.99563,1.21773 40.89224,6.1472 5.27914,4.41327 11.20008,14.31792 7.75082,19.77794 -1.14113,1.80636 -3.44725,-0.34179 -6.94998,-1.19578 -4.70138,-1.14623 -25.2731,-4.79005 -44.63304,3.06667 12.81321,13.47326 24.32274,25.77586 23.25244,30.86963 -1.06351,5.06148 -8.65741,9.8209 -13.56393,8.18513 -5.17177,-1.72421 -3.1813,-10.82114 -6.68173,-15.0005 -4.00969,-4.78738 -12.11644,-8.25156 -15.83572,-7.71741 -7.45435,1.07057 -25.70232,22.76738 -42.62949,39.65612 0.648167,20.8732 -2.725507,53.11809 -2.05177,65.00045 0.232392,4.09858 11.941221,2.25532 15.147975,5.5587 2.873695,2.96028 3.090955,10.16807 1.854183,11.30884 -7.038273,6.49196 -41.42931,-10.64411 -42.746421,-20.83032 -0.685254,-5.29959 7.939278,-17.39336 5.612663,-19.74453 -7.373416,-7.45125 -28.091248,-5.45561 -41.559985,9.29101 -4.231968,4.63349 -9.081559,8.98971 -9.989626,17.20208 -0.560914,5.07279 6.77864,7.47939 6.915599,11.09167 0.07904,2.08455 -0.791862,5.49514 -3.589743,6.24004 -4.162305,1.10817 -14.84297718,-2.63009 -17.6906094,-7.02939 -3.9463276,-6.09668 -2.2638202,-33.0249 2.0760875,-37.44738 5.2159594,-5.3152 17.6959149,-8.68996 19.6051689,-13.64695 2.473668,-6.42237 -0.844279,-19.28803 -5.34539,-23.51972 -6.9603941,-6.54376 -47.10047,-5.18754 -58.877576,-2.91565 -6.680785,1.28878 -11.812111,3.14227 -17.294239,5.72198 -8.384782,3.9456 -18.596758,17.08378 -23.920622,13.93377 -3.015676,-1.78431 -1.6061,-8.14103 1.603618,-12.06288 8.925678,-10.906 26.576292,-18.51093 37.952272,-21.91611 10.138217,-3.03468 51.7261443,0.51604 62.140164,-3.60813 0.152872,-0.0605 2.212892,-2.00707 5.713074,-5.79522 7.702258,-8.33596 49.223249,-37.58112 54.836838,-48.46718 5.173696,-10.033 18.135447,-26.142382 22.156643,-38.780808 2.436795,-7.658728 -0.376218,-23.898452 2.164881,-33.381964 3.312445,-12.362219 13.596995,-19.636949 17.360545,-28.554797 1.8619,-4.411825 1.18352,-7.988064 2.53767,-8.321714 z"
         id="path76"
         inkscape:connector-curvature="0"
         sodipodi:nodetypes="ssssssssscsssscsssssssssssssssssssssssss"
         inkscape:export-xdpi="150"
         inkscape:export-ydpi="150"
         inkscape:export-filename="/tmp/smaller.png" />
    </g>
  </g>
  <g
     inkscape:groupmode="layer"
     id="layer10"
     inkscape:label="Saxophone"
     style="display:inline"
     transform="translate(-36.69312,-105.25074)"
     sodipodi:insensitive="true">
    <g
       style="display:inline"
       inkscape:label="Saxophone color"
       id="g919"
       inkscape:groupmode="layer">
      <path
         inkscape:export-filename="/tmp/smaller.png"
         inkscape:export-ydpi="150"
         inkscape:export-xdpi="150"
         sodipodi:nodetypes="ssssssssscssssssssssssscsscscssssssssssssssscsssssssscssssscscssssssssssssssscscsssssss"
         inkscape:connector-curvature="0"
         id="path917"
         d="m 317.18544,227.1799 c 0.81344,3.7793 -1.03395,6.47349 -1.1927,9.0738 -0.0779,1.27607 1.64244,1.87224 0.58466,4.27966 -1.09657,2.49573 -2.08189,0.31719 -2.8297,1.23946 -4.12992,5.09343 -5.01591,12.08229 -6.99245,18.33469 -1.52892,4.83647 -2.0923,7.21339 -2.362,9.72862 -0.0736,0.6862 1.77552,-0.35801 0.84189,2.40875 -0.88652,2.62717 -1.77025,0.56413 -2.87646,1.61365 -0.76859,0.7292 2.1426,-0.70799 0.23214,4.65397 -1.87937,5.27468 -3.39741,0.23566 -5.44725,0.67805 -0.8803,0.27 -1.22306,1.32646 -1.28623,2.24507 -0.11642,1.69303 3.93358,-1.78394 1.63703,4.93445 -1.74069,5.09225 -3.45004,0.62818 -4.32644,1.42656 -0.38155,0.34759 -0.7399,0.89408 -0.65481,1.40316 0.20722,1.23977 3.11561,-0.64296 2.75956,2.59587 -0.38354,3.48887 -2.62404,0.85014 -3.48452,1.70718 -1.9785,1.97058 -2.85052,4.94766 -4.06917,7.46014 -2.22127,4.57957 -4.50665,9.19651 -5.68282,14.1486 -0.37579,1.58221 0.83447,2.00617 -0.37417,4.86431 -1.3436,3.17728 -4.10055,3.15939 -4.63046,5.37878 -0.86864,3.63807 1.96738,3.93157 1.12254,6.22071 -0.84345,2.28537 -2.14189,0.30656 -4.27967,3.74178 -0.86602,1.39163 0.7601,3.66298 -0.0701,5.65942 -1.21566,2.92327 -4.26561,4.25949 -6.33764,8.13837 -0.46972,0.0769 -0.89359,-1.06413 -1.28624,-0.79512 -1.98788,1.3619 -1.50027,5.0666 0.56125,6.31422 1.17286,0.70981 3.60807,0.38813 4.63046,-0.70157 0.0234,-0.7989 -3.116,0.0753 -2.47893,-1.44995 0.66177,-1.58434 2.40368,-0.95256 3.37756,0.34173 6.20856,-11.47373 18.11207,-35.33574 27.91302,-44.26078 1.80063,-1.63971 3.98829,-3.45216 4.71029,-5.77802 0.39922,-1.28605 -1.32908,-3.48523 -0.40724,-3.85704 1.15192,-0.46461 15.44121,25.60498 14.96708,26.18673 -0.82502,1.01228 -1.58363,-2.03836 -3.83627,-2.34998 -3.69256,-0.51079 -7.46591,1.0294 -10.10182,3.66528 -0.43932,0.43931 0.88587,0.49436 -0.49514,1.71119 -1.48475,1.30823 -1.35493,-0.085 -1.84915,0.20881 -2.48867,1.47939 -4.48381,4.91813 -5.40855,7.01112 -0.55676,1.26013 0.60664,1.88529 0.0765,3.15685 -2.33579,5.60262 -7.55253,12.20759 -11.49458,17.85188 -1.51097,2.16344 -4.13229,4.77876 -4.56713,6.22306 -0.10825,0.35953 0.76862,0.14471 0.63259,0.49464 -1.99837,5.14113 -11.33823,7.14315 -17.49282,6.37283 -4.22204,-0.52844 -8.14917,-4.82305 -10.66404,-8.25529 -2.03025,-2.77086 -2.04859,-7.10325 -2.43215,-8.06818 -1.02612,-0.97655 -4.67234,0.77128 -5.56589,-1.52011 -0.39752,-1.01939 1.22706,-3.1236 1.68112,-4.94677 0.42834,-1.71989 -0.19163,-2.65561 1.14861,-4.22057 0.9641,-1.12577 2.60891,-0.67569 4.13933,-1.12254 1.28749,-0.37593 2.02834,-5.27529 3.29744,-6.82872 1.35778,-1.66198 2.61288,-1.06942 3.64823,-2.10477 1.03534,-1.03534 1.89678,-2.41757 1.96443,-4.06917 0.0491,-1.19857 -2.87902,-0.26944 -2.6894,-1.1927 0.61141,-2.97704 7.81154,-12.46898 10.4068,-20.81361 0.71892,-0.43923 1.22659,1.1743 2.59586,-0.25719 1.26567,-1.32318 3.06402,-2.98117 3.3442,-5.19172 0.0668,-0.52679 -1.53177,-0.92947 -1.28624,-1.70719 0.3665,-1.16087 2.76951,0.45838 3.08697,-0.14031 2.39525,-4.51716 2.20414,-11.76042 5.94007,-17.30569 0.96376,-1.43051 1.47918,-2.97599 3.99903,-3.20391 0.22459,-0.7664 -2.16119,-0.73886 -1.84751,-1.47331 1.71458,-4.01446 5.26751,-9.61073 6.91058,-10.68745 -0.88497,-1.48751 0.10849,-2.15133 0.22558,-2.9242 0.1006,-0.66406 -0.64232,-0.57742 -0.43601,-1.65946 0.4873,-2.5557 4.34198,-3.2027 5.37878,-5.09817 0.16708,-0.30546 -0.93113,-0.0532 -1.04018,-0.57849 -1.50118,-7.23082 10.31334,-14.01665 11.41241,-18.9895 0.20466,-0.926 -1.15374,-2.3291 -0.74885,-3.18667 0.80434,-1.70364 3.66795,-1.36468 3.80794,-1.97579 0.37213,-1.62452 -0.0591,-4.32972 -1.1887,-6.16257 -2.40958,-3.90911 -11.15573,-10.83456 -11.64554,-10.97468 -0.39088,-0.11182 -0.58171,0.28883 -0.98763,0.2662 -1.43921,-0.0802 -2.81052,-2.46741 -3.60846,-2.4345 -1.3532,0.0558 -2.86226,-2.23686 -3.81191,-1.88258 -0.52784,0.19692 -0.2982,1.66626 -0.2982,1.66626 -1.01414,-0.41292 -0.5818,-2.67243 -1.16343,-3.38513 -0.28228,-0.34589 -0.811,-0.83213 -1.09915,-0.49111 -0.39166,0.46352 -0.18711,1.52009 -0.18711,1.52009 -1.49906,-0.62739 -0.61127,-2.38763 -1.33299,-3.46114 -1.5431,-2.29525 -5.81376,-5.67858 -6.89889,-6.7118 3.53214,-0.81675 6.61021,-0.35663 10.03399,0.96685 2.4783,0.958 5.60047,3.32876 7.29793,4.92527 0.92235,0.86749 1.26424,2.04559 2.1567,2.94381 0.67274,0.67709 1.64718,0.86795 2.24507,1.61197 0.4451,0.55389 0.0959,1.21315 0.35244,1.64554 0.98041,1.65215 3.24289,2.35948 4.69093,3.622 3.96181,3.45422 10.52739,7.35582 11.43573,11.57607 z"
         style="fill:url(#linearGradient2295);fill-opacity:1;fill-rule:evenodd;stroke:none;stroke-width:0.79374999;stroke-linecap:butt;stroke-linejoin:miter;stroke-miterlimit:4;stroke-dasharray:none;stroke-opacity:1" />
    </g>
    <g
       inkscape:groupmode="layer"
       id="layer16"
       inkscape:label="Saxophone outline"
       style="display:none"
       sodipodi:insensitive="true">
      <path
         style="fill:none;fill-rule:evenodd;stroke:#000000;stroke-width:0.79374999;stroke-linecap:butt;stroke-linejoin:miter;stroke-miterlimit:4;stroke-dasharray:none;stroke-opacity:1"
         d="m 317.18544,227.1799 c 0.81344,3.7793 -1.03395,6.47349 -1.1927,9.0738 -0.0779,1.27607 1.64244,1.87224 0.58466,4.27966 -1.09657,2.49573 -2.08189,0.31719 -2.8297,1.23946 -4.12992,5.09343 -5.01591,12.08229 -6.99245,18.33469 -1.52892,4.83647 -2.0923,7.21339 -2.362,9.72862 -0.0736,0.6862 1.77552,-0.35801 0.84189,2.40875 -0.88652,2.62717 -1.77025,0.56413 -2.87646,1.61365 -0.76859,0.7292 2.1426,-0.70799 0.23214,4.65397 -1.87937,5.27468 -3.39741,0.23566 -5.44725,0.67805 -0.8803,0.27 -1.22306,1.32646 -1.28623,2.24507 -0.11642,1.69303 3.93358,-1.78394 1.63703,4.93445 -1.74069,5.09225 -3.45004,0.62818 -4.32644,1.42656 -0.38155,0.34759 -0.7399,0.89408 -0.65481,1.40316 0.20722,1.23977 3.11561,-0.64296 2.75956,2.59587 -0.38354,3.48887 -2.62404,0.85014 -3.48452,1.70718 -1.9785,1.97058 -2.85052,4.94766 -4.06917,7.46014 -2.22127,4.57957 -4.50665,9.19651 -5.68282,14.1486 -0.37579,1.58221 0.83447,2.00617 -0.37417,4.86431 -1.3436,3.17728 -4.10055,3.15939 -4.63046,5.37878 -0.86864,3.63807 1.96738,3.93157 1.12254,6.22071 -0.84345,2.28537 -2.14189,0.30656 -4.27967,3.74178 -0.86602,1.39163 0.7601,3.66298 -0.0701,5.65942 -1.21566,2.92327 -4.26561,4.25949 -6.33764,8.13837 -0.46972,0.0769 -0.89359,-1.06413 -1.28624,-0.79512 -1.98788,1.3619 -1.50027,5.0666 0.56125,6.31422 1.17286,0.70981 3.60807,0.38813 4.63046,-0.70157 0.0234,-0.7989 -3.116,0.0753 -2.47893,-1.44995 0.66177,-1.58434 2.40368,-0.95256 3.37756,0.34173 6.20856,-11.47373 18.11207,-35.33574 27.91302,-44.26078 1.80063,-1.63971 3.98829,-3.45216 4.71029,-5.77802 0.39922,-1.28605 -1.32908,-3.48523 -0.40724,-3.85704 1.15192,-0.46461 15.44121,25.60498 14.96708,26.18673 -0.82502,1.01228 -1.58363,-2.03836 -3.83627,-2.34998 -3.69256,-0.51079 -7.46591,1.0294 -10.10182,3.66528 -0.43932,0.43931 0.88587,0.49436 -0.49514,1.71119 -1.48475,1.30823 -1.35493,-0.085 -1.84915,0.20881 -2.48867,1.47939 -4.48381,4.91813 -5.40855,7.01112 -0.55676,1.26013 0.60664,1.88529 0.0765,3.15685 -2.33579,5.60262 -7.55253,12.20759 -11.49458,17.85188 -1.51097,2.16344 -4.13229,4.77876 -4.56713,6.22306 -0.10825,0.35953 0.76862,0.14471 0.63259,0.49464 -1.99837,5.14113 -11.33823,7.14315 -17.49282,6.37283 -4.22204,-0.52844 -8.14917,-4.82305 -10.66404,-8.25529 -2.03025,-2.77086 -2.04859,-7.10325 -2.43215,-8.06818 -1.02612,-0.97655 -4.67234,0.77128 -5.56589,-1.52011 -0.39752,-1.01939 1.22706,-3.1236 1.68112,-4.94677 0.42834,-1.71989 -0.19163,-2.65561 1.14861,-4.22057 0.9641,-1.12577 2.60891,-0.67569 4.13933,-1.12254 1.28749,-0.37593 2.02834,-5.27529 3.29744,-6.82872 1.35778,-1.66198 2.61288,-1.06942 3.64823,-2.10477 1.03534,-1.03534 1.89678,-2.41757 1.96443,-4.06917 0.0491,-1.19857 -2.87902,-0.26944 -2.6894,-1.1927 0.61141,-2.97704 7.81154,-12.46898 10.4068,-20.81361 0.71892,-0.43923 1.22659,1.1743 2.59586,-0.25719 1.26567,-1.32318 3.06402,-2.98117 3.3442,-5.19172 0.0668,-0.52679 -1.53177,-0.92947 -1.28624,-1.70719 0.3665,-1.16087 2.76951,0.45838 3.08697,-0.14031 2.39525,-4.51716 2.20414,-11.76042 5.94007,-17.30569 0.96376,-1.43051 1.47918,-2.97599 3.99903,-3.20391 0.22459,-0.7664 -2.16119,-0.73886 -1.84751,-1.47331 1.71458,-4.01446 5.26751,-9.61073 6.91058,-10.68745 -0.88497,-1.48751 0.10849,-2.15133 0.22558,-2.9242 0.1006,-0.66406 -0.64232,-0.57742 -0.43601,-1.65946 0.4873,-2.5557 4.34198,-3.2027 5.37878,-5.09817 0.16708,-0.30546 -0.93113,-0.0532 -1.04018,-0.57849 -1.50118,-7.23082 10.31334,-14.01665 11.41241,-18.9895 0.20466,-0.926 -1.15374,-2.3291 -0.74885,-3.18667 0.80434,-1.70364 3.66795,-1.36468 3.80794,-1.97579 0.37213,-1.62452 -0.0591,-4.32972 -1.1887,-6.16257 -2.40958,-3.90911 -11.15573,-10.83456 -11.64554,-10.97468 -0.39088,-0.11182 -0.58171,0.28883 -0.98763,0.2662 -1.43921,-0.0802 -2.81052,-2.46741 -3.60846,-2.4345 -1.3532,0.0558 -2.86226,-2.23686 -3.81191,-1.88258 -0.52784,0.19692 -0.2982,1.66626 -0.2982,1.66626 -1.01414,-0.41292 -0.5818,-2.67243 -1.16343,-3.38513 -0.28228,-0.34589 -0.811,-0.83213 -1.09915,-0.49111 -0.39166,0.46352 -0.18711,1.52009 -0.18711,1.52009 -1.49906,-0.62739 -0.61127,-2.38763 -1.33299,-3.46114 -1.5431,-2.29525 -5.81376,-5.67858 -6.89889,-6.7118 3.53214,-0.81675 6.61021,-0.35663 10.03399,0.96685 2.4783,0.958 5.60047,3.32876 7.29793,4.92527 0.92235,0.86749 1.26424,2.04559 2.1567,2.94381 0.67274,0.67709 1.64718,0.86795 2.24507,1.61197 0.4451,0.55389 0.0959,1.21315 0.35244,1.64554 0.98041,1.65215 3.24289,2.35948 4.69093,3.622 3.96181,3.45422 10.52739,7.35582 11.43573,11.57607 z"
         id="path4695"
         inkscape:connector-curvature="0"
         sodipodi:nodetypes="ssssssssscssssssssssssscsscscssssssssssssssscsssssssscssssscscssssssssssssssscscsssssss"
         inkscape:export-xdpi="150"
         inkscape:export-ydpi="150"
         inkscape:export-filename="/tmp/smaller.png" />
    </g>
  </g>
  <g
     inkscape:groupmode="layer"
     id="layer8"
     inkscape:label="Overpaw"
     style="display:inline"
     transform="translate(-36.69312,-105.25074)"
     sodipodi:insensitive="true">
    <g
       style="display:inline"
       inkscape:label="Overpaw color"
       id="g923"
       inkscape:groupmode="layer">
      <path
         inkscape:export-filename="/tmp/smaller.png"
         inkscape:export-ydpi="150"
         inkscape:export-xdpi="150"
         style="display:inline;fill:#000000;fill-opacity:1;fill-rule:evenodd;stroke:none;stroke-width:0.79374999;stroke-linecap:butt;stroke-linejoin:miter;stroke-miterlimit:4;stroke-dasharray:none;stroke-opacity:1"
         d="m 143.12283,112.71766 c 6.81468,7.19514 34.99563,1.21773 40.89224,6.1472 5.27914,4.41327 11.20008,14.31792 7.75082,19.77794 -1.14113,1.80636 -3.44725,-0.34179 -6.94998,-1.19578 -4.70138,-1.14623 -25.2731,-4.79005 -44.63304,3.06667 z"
         id="path921"
         inkscape:connector-curvature="0"
         sodipodi:nodetypes="cssscc"
         transform="translate(125.4881,119.32187)" />
    </g>
    <g
       inkscape:groupmode="layer"
       id="layer4"
       inkscape:label="Overpaw outline"
       style="display:none">
      <path
         transform="translate(125.4881,119.32187)"
         sodipodi:nodetypes="cssscc"
         inkscape:connector-curvature="0"
         id="path102"
         d="m 143.12283,112.71766 c 6.81468,7.19514 34.99563,1.21773 40.89224,6.1472 5.27914,4.41327 11.20008,14.31792 7.75082,19.77794 -1.14113,1.80636 -3.44725,-0.34179 -6.94998,-1.19578 -4.70138,-1.14623 -25.2731,-4.79005 -44.63304,3.06667 z"
         style="display:inline;fill:none;fill-rule:evenodd;stroke:#000000;stroke-width:0.79374999;stroke-linecap:butt;stroke-linejoin:miter;stroke-miterlimit:4;stroke-dasharray:none;stroke-opacity:1"
         inkscape:export-xdpi="150"
         inkscape:export-ydpi="150"
         inkscape:export-filename="/tmp/smaller.png" />
    </g>
  </g>
  <g
     inkscape:groupmode="layer"
     id="layer17"
     inkscape:label="Head"
     sodipodi:insensitive="true"
     style="display:inline"
     transform="translate(-36.693118,-76.940323)">
    <g
       style="display:inline"
       inkscape:label="Head color"
       id="g2262"
       inkscape:groupmode="layer"
       sodipodi:insensitive="true">
      <path
         inkscape:export-filename="/tmp/smaller.png"
         inkscape:export-ydpi="150"
         inkscape:export-xdpi="150"
         sodipodi:nodetypes="ssssccsss"
         inkscape:connector-curvature="0"
         id="path2260"
         d="m 119.33584,15.832457 c 4.58418,-1.1295 8.87306,12.590456 16.05238,12.294397 8.09235,-0.33371 5.41266,-7.170218 8.96025,-6.925384 3.31014,0.228447 21.06243,45.83577 16.03617,58.932931 -2.30989,6.019001 -16.01707,8.094146 -18.16385,11.235105 L 97.272744,86.090932 C 99.709539,78.432204 96.896526,62.19248 99.437625,52.708968 102.75007,40.346749 113.03462,33.072019 116.79817,24.154171 c 1.8619,-4.411825 1.18352,-7.988064 2.53767,-8.321714 z"
         style="display:inline;fill:#000000;fill-opacity:1;fill-rule:evenodd;stroke:none;stroke-width:0.79400003;stroke-linecap:butt;stroke-linejoin:miter;stroke-miterlimit:4;stroke-dasharray:none;stroke-opacity:1;enable-background:new"
         transform="translate(125.4881,91.011452)" />
    </g>
    <g
       inkscape:groupmode="layer"
       id="layer18"
       inkscape:label="Head outline"
       style="display:none"
       sodipodi:insensitive="true">
      <path
         transform="translate(125.4881,91.011452)"
         style="display:inline;fill:none;fill-opacity:1;fill-rule:evenodd;stroke:#000000;stroke-width:0.79374999;stroke-linecap:butt;stroke-linejoin:miter;stroke-miterlimit:4;stroke-dasharray:none;stroke-opacity:1;enable-background:new"
         d="m 119.33584,15.832457 c 4.58418,-1.1295 8.87306,12.590456 16.05238,12.294397 8.09235,-0.33371 5.41266,-7.170218 8.96025,-6.925384 3.31014,0.228447 21.06243,45.83577 16.03617,58.932931 -2.30989,6.019001 -16.01707,8.094146 -18.16385,11.235105 L 97.272744,86.090932 C 99.709539,78.432204 96.896526,62.19248 99.437625,52.708968 102.75007,40.346749 113.03462,33.072019 116.79817,24.154171 c 1.8619,-4.411825 1.18352,-7.988064 2.53767,-8.321714 z"
         id="path2257"
         inkscape:connector-curvature="0"
         sodipodi:nodetypes="ssssccsss"
         inkscape:export-xdpi="150"
         inkscape:export-ydpi="150"
         inkscape:export-filename="/tmp/smaller.png" />
    </g>
  </g>
  <g
     inkscape:label="Body Glow"
     id="g2171"
     inkscape:groupmode="layer"
     style="display:inline"
     sodipodi:insensitive="true"
     transform="translate(-36.693118,-76.940323)">
    <circle
       r="161.56577"
       cy="238.50609"
       cx="217.10397"
       id="circle2169"
       style="opacity:1;fill:url(#radialGradient2179);fill-opacity:1;stroke:none;stroke-width:0.79399997;stroke-miterlimit:4;stroke-dasharray:none;stroke-opacity:1"
       clip-path="url(#clipPath2251)" />
  </g>
  <g
     inkscape:groupmode="layer"
     id="layer11"
     inkscape:label="Initials"
     style="display:inline"
     transform="translate(-36.69312,-105.25074)"
     sodipodi:insensitive="true">
    <g
       inkscape:groupmode="layer"
       id="layer12"
       inkscape:label="C">
      <g
         style="opacity:1"
         inkscape:label="C color"
         id="g931"
         inkscape:groupmode="layer">
        <path
           inkscape:export-filename="/tmp/smaller.png"
           inkscape:export-ydpi="150"
           inkscape:export-xdpi="150"
           sodipodi:nodetypes="ccccccccccccc"
           inkscape:connector-curvature="0"
           id="path929"
           transform="scale(0.26458333)"
           d="m 569.36719,874.94531 c -15.67656,21.7332 -43.78552,30.97072 -69.5293,22.84961 -25.74343,-8.12038 -43.21793,-31.73634 -43.22461,-58.41601 -0.007,-26.68033 17.45701,-50.30518 43.19727,-58.4375 5.92949,-1.87333 12.11049,-2.85631 18.33593,-2.91602 20.30149,-0.19488 39.41905,9.41349 51.20313,25.73438 L 581.22656,795.5 c -14.55011,-20.10787 -38.15552,-31.94558 -63.22265,-31.70508 -7.68638,0.074 -15.31783,1.28549 -22.63868,3.59375 -31.78161,10.01894 -53.344,39.12438 -53.33593,71.99414 0.008,32.86972 21.58463,61.96488 53.37109,71.96875 31.78626,10.00436 66.4923,-1.37692 85.84766,-28.15234 z"
           style="fill:#337e7b;fill-opacity:1;stroke:none;stroke-width:3;stroke-miterlimit:4;stroke-dasharray:none;stroke-opacity:1" />
      </g>
      <g
         inkscape:groupmode="layer"
         id="layer14"
         inkscape:label="C outline"
         style="display:none;opacity:1">
        <path
           style="fill:none;stroke:#000000;stroke-width:3;stroke-miterlimit:4;stroke-dasharray:none;stroke-opacity:1"
           d="m 569.36719,874.94531 c -15.67656,21.7332 -43.78552,30.97072 -69.5293,22.84961 -25.74343,-8.12038 -43.21793,-31.73634 -43.22461,-58.41601 -0.007,-26.68033 17.45701,-50.30518 43.19727,-58.4375 5.92949,-1.87333 12.11049,-2.85631 18.33593,-2.91602 20.30149,-0.19488 39.41905,9.41349 51.20313,25.73438 L 581.22656,795.5 c -14.55011,-20.10787 -38.15552,-31.94558 -63.22265,-31.70508 -7.68638,0.074 -15.31783,1.28549 -22.63868,3.59375 -31.78161,10.01894 -53.344,39.12438 -53.33593,71.99414 0.008,32.86972 21.58463,61.96488 53.37109,71.96875 31.78626,10.00436 66.4923,-1.37692 85.84766,-28.15234 z"
           transform="scale(0.26458333)"
           id="path152"
           inkscape:connector-curvature="0"
           sodipodi:nodetypes="ccccccccccccc"
           inkscape:export-xdpi="150"
           inkscape:export-ydpi="150"
           inkscape:export-filename="/tmp/smaller.png" />
      </g>
    </g>
    <g
       inkscape:groupmode="layer"
       id="layer13"
       inkscape:label="H"
       style="display:inline">
      <g
         inkscape:label="H color"
         id="g927"
         inkscape:groupmode="layer">
        <path
           inkscape:export-filename="/tmp/smaller.png"
           inkscape:export-ydpi="150"
           inkscape:export-xdpi="150"
           inkscape:connector-curvature="0"
           id="path925"
           d="m 100.54167,183.57122 h 3.99355 v 15.91956 h 19.18301 v -15.91956 h 3.88794 v 38.14804 h -3.88794 v -18.49255 h -19.18301 v 18.49255 h -3.99355 z"
           style="opacity:1;fill:#d05754;fill-opacity:1;fill-rule:evenodd;stroke:none;stroke-width:0.79374999;stroke-linecap:butt;stroke-linejoin:miter;stroke-miterlimit:4;stroke-dasharray:none;stroke-opacity:1" />
      </g>
      <g
         inkscape:groupmode="layer"
         id="layer15"
         inkscape:label="H outline"
         style="display:none"
         sodipodi:insensitive="true">
        <path
           style="fill:none;fill-rule:evenodd;stroke:#000000;stroke-width:0.79374999;stroke-linecap:butt;stroke-linejoin:miter;stroke-miterlimit:4;stroke-dasharray:none;stroke-opacity:1"
           d="m 100.54167,183.57122 h 3.99355 v 15.91956 h 19.18301 v -15.91956 h 3.88794 v 38.14804 h -3.88794 v -18.49255 h -19.18301 v 18.49255 h -3.99355 z"
           id="path143"
           inkscape:connector-curvature="0"
           inkscape:export-xdpi="150"
           inkscape:export-ydpi="150"
           inkscape:export-filename="/tmp/smaller.png" />
      </g>
    </g>
  </g>
</svg>
