<?xml version="1.0" encoding="UTF-8" standalone="no"?>
<!DOCTYPE svg PUBLIC "-//W3C//DTD SVG 1.1//EN" "http://www.w3.org/Graphics/SVG/1.1/DTD/svg11.dtd">
<svg version="1.1" xmlns="http://www.w3.org/2000/svg" xmlns:xlink="http://www.w3.org/1999/xlink" preserveAspectRatio="xMidYMid meet" viewBox="0 0 640 640" width="640" height="640"><defs><path d="M284.51 8.2L294.78 9.24L304.92 10.68L314.93 12.52L324.8 14.74L334.53 17.34L344.09 20.31L353.49 23.64L362.71 27.32L371.76 31.35L380.61 35.71L389.27 40.4L397.72 45.41L405.95 50.74L413.96 56.37L421.75 62.29L429.29 68.5L436.58 75L443.62 81.76L450.4 88.78L456.9 96.06L463.13 103.59L469.07 111.36L474.71 119.35L480.04 127.57L485.06 136L489.77 144.64L494.14 153.48L498.17 162.5L501.86 171.71L505.2 181.09L508.17 190.63L510.78 200.33L513.01 210.18L514.85 220.18L516.29 230.3L517.33 240.55L517.96 250.91L518.18 261.38L517.96 271.85L517.33 282.21L516.29 292.46L514.85 302.58L513.01 312.57L510.78 322.42L508.17 332.13L505.2 341.67L501.86 351.05L498.17 360.26L494.14 369.28L489.77 378.12L485.06 386.76L480.04 395.19L474.89 403.13L635.66 563.56L566.43 632.64L405.67 472.21L397.72 477.34L389.27 482.36L380.61 487.05L371.76 491.41L362.71 495.44L353.49 499.12L344.09 502.45L334.53 505.42L324.8 508.02L314.93 510.24L304.92 512.08L294.78 513.52L284.51 514.56L274.13 515.19L263.64 515.4L253.14 515.19L242.76 514.56L232.49 513.52L222.35 512.08L212.34 510.24L202.47 508.02L192.74 505.42L183.18 502.45L173.78 499.12L164.56 495.44L155.51 491.41L146.66 487.05L138 482.36L129.55 477.34L121.32 472.02L113.31 466.39L105.52 460.47L97.98 454.25L90.69 447.76L83.65 441L76.87 433.98L70.37 426.69L64.14 419.17L58.21 411.4L52.56 403.41L47.23 395.19L42.21 386.76L37.5 378.12L33.13 369.28L29.1 360.26L25.41 351.05L22.07 341.67L19.1 332.13L16.49 322.42L14.26 312.57L12.42 302.58L10.98 292.46L9.94 282.21L9.31 271.85L9.09 261.38L9.31 250.91L9.94 240.55L10.98 230.3L12.42 220.18L14.26 210.18L16.49 200.33L19.1 190.63L22.07 181.09L25.41 171.71L29.1 162.5L33.13 153.48L37.5 144.64L42.21 136L47.23 127.57L52.56 119.35L58.21 111.36L64.14 103.59L70.37 96.06L76.87 88.78L83.65 81.76L90.69 75L97.98 68.5L105.52 62.29L113.31 56.37L121.32 50.74L129.55 45.41L138 40.4L146.66 35.71L155.51 31.35L164.56 27.32L173.78 23.64L183.18 20.31L192.74 17.34L202.47 14.74L212.34 12.52L222.35 10.68L232.49 9.24L242.76 8.2L253.14 7.57L263.64 7.36L274.13 7.57L284.51 8.2ZM250.75 105.16L244.42 105.8L238.16 106.69L231.98 107.83L225.89 109.2L219.89 110.8L213.99 112.63L208.19 114.69L202.5 116.96L196.92 119.44L191.46 122.14L186.12 125.03L180.9 128.12L175.82 131.41L170.88 134.88L166.08 138.54L161.42 142.37L156.92 146.38L152.58 150.55L148.4 154.88L144.38 159.38L140.54 164.02L136.88 168.81L133.4 173.75L130.11 178.82L127.01 184.02L124.11 189.35L121.41 194.8L118.92 200.37L116.64 206.05L114.58 211.84L112.75 217.73L111.14 223.71L109.77 229.79L108.63 235.96L107.74 242.2L107.1 248.52L106.71 254.92L106.58 261.38L106.71 267.84L107.1 274.23L107.74 280.56L108.63 286.8L109.77 292.97L111.14 299.05L112.75 305.03L114.58 310.92L116.64 316.71L118.92 322.39L121.41 327.96L124.11 333.41L127.01 338.74L130.11 343.94L133.4 349.01L136.88 353.95L140.54 358.74L144.38 363.38L148.4 367.87L152.58 372.21L156.92 376.38L161.42 380.39L166.08 384.22L170.88 387.88L175.82 391.35L180.9 394.63L186.12 397.73L191.46 400.62L196.92 403.31L202.5 405.8L208.19 408.07L213.99 410.13L219.89 411.96L225.89 413.56L231.98 414.93L238.16 416.07L244.42 416.96L250.75 417.6L257.16 417.99L263.64 418.12L270.11 417.99L276.52 417.6L282.85 416.96L289.11 416.07L295.29 414.93L301.38 413.56L307.38 411.96L313.28 410.13L319.08 408.07L324.77 405.8L330.35 403.31L335.81 400.62L341.15 397.73L346.37 394.63L351.45 391.35L356.39 387.88L361.19 384.22L365.85 380.39L370.35 376.38L374.69 372.21L378.87 367.87L382.89 363.38L386.73 358.74L390.39 353.95L393.87 349.01L397.16 343.94L400.26 338.74L403.16 333.41L405.86 327.96L408.35 322.39L410.63 316.71L412.69 310.92L414.52 305.03L416.13 299.05L417.5 292.97L418.64 286.8L419.53 280.56L420.17 274.23L420.56 267.84L420.69 261.38L420.56 254.92L420.17 248.52L419.53 242.2L418.64 235.96L417.5 229.79L416.13 223.71L414.52 217.73L412.69 211.84L410.63 206.05L408.35 200.37L405.86 194.8L403.16 189.35L400.26 184.02L397.16 178.82L393.87 173.75L390.39 168.81L386.73 164.02L382.89 159.38L378.87 154.88L374.69 150.55L370.35 146.38L365.85 142.37L361.19 138.54L356.39 134.88L351.45 131.41L346.37 128.12L341.15 125.03L335.81 122.14L330.35 119.44L324.77 116.96L319.08 114.69L313.28 112.63L307.38 110.8L301.38 109.2L295.29 107.83L289.11 106.69L282.85 105.8L276.52 105.16L270.11 104.77L263.64 104.64L257.16 104.77L250.75 105.16Z" id="bMT36xSkC"></path></defs><g><g><g><g><filter id="shadow2839096" x="0.09" y="-1.64" width="645.56" height="644.29" filterUnits="userSpaceOnUse" primitiveUnits="userSpaceOnUse"><feFlood></feFlood><feComposite in2="SourceAlpha" operator="in"></feComposite><feGaussianBlur stdDeviation="1"></feGaussianBlur><feOffset dx="1" dy="1" result="afterOffset"></feOffset><feFlood flood-color="#000000" flood-opacity="0.5"></feFlood><feComposite in2="afterOffset" operator="in"></feComposite><feMorphology operator="dilate" radius="1"></feMorphology><feComposite in2="SourceAlpha" operator="out"></feComposite></filter><path d="M284.51 8.2L294.78 9.24L304.92 10.68L314.93 12.52L324.8 14.74L334.53 17.34L344.09 20.31L353.49 23.64L362.71 27.32L371.76 31.35L380.61 35.71L389.27 40.4L397.72 45.41L405.95 50.74L413.96 56.37L421.75 62.29L429.29 68.5L436.58 75L443.62 81.76L450.4 88.78L456.9 96.06L463.13 103.59L469.07 111.36L474.71 119.35L480.04 127.57L485.06 136L489.77 144.64L494.14 153.48L498.17 162.5L501.86 171.71L505.2 181.09L508.17 190.63L510.78 200.33L513.01 210.18L514.85 220.18L516.29 230.3L517.33 240.55L517.96 250.91L518.18 261.38L517.96 271.85L517.33 282.21L516.29 292.46L514.85 302.58L513.01 312.57L510.78 322.42L508.17 332.13L505.2 341.67L501.86 351.05L498.17 360.26L494.14 369.28L489.77 378.12L485.06 386.76L480.04 395.19L474.89 403.13L635.66 563.56L566.43 632.64L405.67 472.21L397.72 477.34L389.27 482.36L380.61 487.05L371.76 491.41L362.71 495.44L353.49 499.12L344.09 502.45L334.53 505.42L324.8 508.02L314.93 510.24L304.92 512.08L294.78 513.52L284.51 514.56L274.13 515.19L263.64 515.4L253.14 515.19L242.76 514.56L232.49 513.52L222.35 512.08L212.34 510.24L202.47 508.02L192.74 505.42L183.18 502.45L173.78 499.12L164.56 495.44L155.51 491.41L146.66 487.05L138 482.36L129.55 477.34L121.32 472.02L113.31 466.39L105.52 460.47L97.98 454.25L90.69 447.76L83.65 441L76.87 433.98L70.37 426.69L64.14 419.17L58.21 411.4L52.56 403.41L47.23 395.19L42.21 386.76L37.5 378.12L33.13 369.28L29.1 360.26L25.41 351.05L22.07 341.67L19.1 332.13L16.49 322.42L14.26 312.57L12.42 302.58L10.98 292.46L9.94 282.21L9.31 271.85L9.09 261.38L9.31 250.91L9.94 240.55L10.98 230.3L12.42 220.18L14.26 210.18L16.49 200.33L19.1 190.63L22.07 181.09L25.41 171.71L29.1 162.5L33.13 153.48L37.5 144.64L42.21 136L47.23 127.57L52.56 119.35L58.21 111.36L64.14 103.59L70.37 96.06L76.87 88.78L83.65 81.76L90.69 75L97.98 68.5L105.52 62.29L113.31 56.37L121.32 50.74L129.55 45.41L138 40.4L146.66 35.71L155.51 31.35L164.56 27.32L173.78 23.64L183.18 20.31L192.74 17.34L202.47 14.74L212.34 12.52L222.35 10.68L232.49 9.24L242.76 8.2L253.14 7.57L263.64 7.36L274.13 7.57L284.51 8.2ZM250.75 105.16L244.42 105.8L238.16 106.69L231.98 107.83L225.89 109.2L219.89 110.8L213.99 112.63L208.19 114.69L202.5 116.96L196.92 119.44L191.46 122.14L186.12 125.03L180.9 128.12L175.82 131.41L170.88 134.88L166.08 138.54L161.42 142.37L156.92 146.38L152.58 150.55L148.4 154.88L144.38 159.38L140.54 164.02L136.88 168.81L133.4 173.75L130.11 178.82L127.01 184.02L124.11 189.35L121.41 194.8L118.92 200.37L116.64 206.05L114.58 211.84L112.75 217.73L111.14 223.71L109.77 229.79L108.63 235.96L107.74 242.2L107.1 248.52L106.71 254.92L106.58 261.38L106.71 267.84L107.1 274.23L107.74 280.56L108.63 286.8L109.77 292.97L111.14 299.05L112.75 305.03L114.58 310.92L116.64 316.71L118.92 322.39L121.41 327.96L124.11 333.41L127.01 338.74L130.11 343.94L133.4 349.01L136.88 353.95L140.54 358.74L144.38 363.38L148.4 367.87L152.58 372.21L156.92 376.38L161.42 380.39L166.08 384.22L170.88 387.88L175.82 391.35L180.9 394.63L186.12 397.73L191.46 400.62L196.92 403.31L202.5 405.8L208.19 408.07L213.99 410.13L219.89 411.96L225.89 413.56L231.98 414.93L238.16 416.07L244.42 416.96L250.75 417.6L257.16 417.99L263.64 418.12L270.11 417.99L276.52 417.6L282.85 416.96L289.11 416.07L295.29 414.93L301.38 413.56L307.38 411.96L313.28 410.13L319.08 408.07L324.77 405.8L330.35 403.31L335.81 400.62L341.15 397.73L346.37 394.63L351.45 391.35L356.39 387.88L361.19 384.22L365.85 380.39L370.35 376.38L374.69 372.21L378.87 367.87L382.89 363.38L386.73 358.74L390.39 353.95L393.87 349.01L397.16 343.94L400.26 338.74L403.16 333.41L405.86 327.96L408.35 322.39L410.63 316.71L412.69 310.92L414.52 305.03L416.13 299.05L417.5 292.97L418.64 286.8L419.53 280.56L420.17 274.23L420.56 267.84L420.69 261.38L420.56 254.92L420.17 248.52L419.53 242.2L418.64 235.96L417.5 229.79L416.13 223.71L414.52 217.73L412.69 211.84L410.63 206.05L408.35 200.37L405.86 194.8L403.16 189.35L400.26 184.02L397.16 178.82L393.87 173.75L390.39 168.81L386.73 164.02L382.89 159.38L378.87 154.88L374.69 150.55L370.35 146.38L365.85 142.37L361.19 138.54L356.39 134.88L351.45 131.41L346.37 128.12L341.15 125.03L335.81 122.14L330.35 119.44L324.77 116.96L319.08 114.69L313.28 112.63L307.38 110.8L301.38 109.2L295.29 107.83L289.11 106.69L282.85 105.8L276.52 105.16L270.11 104.77L263.64 104.64L257.16 104.77L250.75 105.16Z" id="beC1yW828" fill="white" fill-opacity="1" filter="url(#shadow2839096)"></path></g><use xlink:href="#bMT36xSkC" opacity="1" fill="#081212" fill-opacity="1"></use></g></g></g></svg>